<?xml version="1.0" standalone="no"?>
<!DOCTYPE svg PUBLIC "-//W3C//DTD SVG 20010904//EN"
 "http://www.w3.org/TR/2001/REC-SVG-20010904/DTD/svg10.dtd">
<svg version="1.0" xmlns="http://www.w3.org/2000/svg"
 width="512.000000pt" height="512.000000pt" viewBox="0 0 512.000000 512.000000"
 preserveAspectRatio="xMidYMid meet">

<g transform="translate(0.000000,512.000000) scale(0.100000,-0.100000)"
fill="#000000" stroke="none">
<path d="M2050 5001 c-87 -28 -135 -57 -198 -119 -71 -69 -109 -133 -134 -221
-82 -296 117 -583 692 -994 74 -53 142 -97 150 -97 17 0 242 159 365 258 206
165 340 309 423 455 72 126 89 250 54 378 -25 88 -63 152 -134 221 -94 93
-205 138 -337 138 -127 0 -241 -43 -327 -122 l-44 -41 -44 41 c-51 47 -129 89
-201 108 -70 19 -198 17 -265 -5z"/>
<path d="M1305 3229 c-491 -86 -918 -407 -1140 -858 -161 -326 -204 -710 -121
-1057 122 -499 482 -919 948 -1103 215 -85 396 -115 638 -108 316 10 572 91
823 261 55 36 103 66 107 66 4 0 52 -30 107 -66 251 -170 507 -251 823 -261
242 -7 423 23 638 108 402 159 751 520 897 929 209 586 54 1246 -391 1670
-182 174 -356 279 -589 359 -460 156 -976 88 -1379 -182 -55 -37 -102 -67
-106 -67 -4 0 -51 30 -106 67 -181 121 -393 206 -609 243 -156 27 -385 26
-540 -1z m541 -338 c160 -39 278 -89 411 -173 l63 -40 -31 -41 c-97 -130 -202
-328 -248 -467 -160 -493 -68 -1036 248 -1457 l31 -41 -63 -40 c-590 -373
-1337 -213 -1721 368 -133 201 -197 420 -197 675 0 343 120 634 361 876 202
203 436 317 745 363 72 11 322 -4 401 -23z m1939 4 c244 -51 460 -168 635
-344 241 -242 361 -534 361 -876 0 -151 -19 -271 -63 -400 -180 -527 -696
-875 -1247 -841 -221 13 -416 77 -608 198 l-63 40 31 41 c317 422 408 960 247
1457 -44 138 -149 336 -247 467 l-31 41 63 40 c160 101 337 168 512 192 89 13
318 5 410 -15z m-1167 -536 c202 -299 259 -715 145 -1064 -49 -151 -169 -370
-203 -370 -8 0 -33 29 -58 65 -256 381 -271 921 -35 1314 52 86 84 127 97 123
6 -2 30 -32 54 -68z"/>
</g>
</svg>
